<svg xmlns="http://www.w3.org/2000/svg" width="1200" height="750" viewBox="0 0 1200 750" fill="none"><defs><filter id="s" x="0" y="0" width="1200" height="750" filterUnits="userSpaceOnUse"><feDropShadow dx="0" dy="22" stdDeviation="20" flood-color="#102449" flood-opacity=".16"/></filter></defs><rect width="1200" height="750" rx="44" fill="#F9F0F3"/><circle cx="1080" cy="95" r="185" fill="#F6DCE5"/><g filter="url(#s)"><rect x="68" y="62" width="1064" height="626" rx="28" fill="#fff"/><path d="M68 90c0-15 13-28 28-28h1008c15 0 28 13 28 28v45H68V90Z" fill="#F8FAFD"/><circle cx="101" cy="98" r="7" fill="#F4A6A6"/><circle cx="124" cy="98" r="7" fill="#F2CC75"/><circle cx="147" cy="98" r="7" fill="#9BDBB3"/></g><text x="96" y="177" fill="#19365F" font-family="Arial" font-size="25" font-weight="700">Trip savings comparison</text><rect x="96" y="204" width="315" height="52" rx="13" fill="#F7F9FC" stroke="#D8E1EE"/><text x="116" y="226" fill="#64748B" font-family="Arial" font-size="12" font-weight="700">DEPARTURE</text><text x="116" y="247" fill="#19365F" font-family="Arial" font-size="16" font-weight="700">JFK · New York</text><rect x="427" y="204" width="315" height="52" rx="13" fill="#F7F9FC" stroke="#D8E1EE"/><text x="447" y="226" fill="#64748B" font-family="Arial" font-size="12" font-weight="700">TREATMENT</text><text x="447" y="247" fill="#19365F" font-family="Arial" font-size="16" font-weight="700">Single dental implant</text><text x="96" y="300" fill="#19365F" font-family="Arial" font-size="18" font-weight="700">Destination estimates</text><g font-family="Arial"><rect x="96" y="321" width="212" height="268" rx="17" fill="#fff" stroke="#D8E1EE"/><text x="118" y="358" fill="#19365F" font-size="19" font-weight="700">Belgrade</text><text x="118" y="391" fill="#64748B" font-size="12" font-weight="700">TREATMENT FROM</text><text x="118" y="415" fill="#2C65B2" font-size="20" font-weight="700">$820</text><text x="118" y="451" fill="#64748B" font-size="12">Flight estimate · $590</text><text x="118" y="477" fill="#64748B" font-size="12">Accommodation · $210</text><rect x="118" y="503" width="168" height="1" fill="#E3EAF3"/><text x="118" y="528" fill="#64748B" font-size="12">ESTIMATED TOTAL</text><text x="118" y="556" fill="#19365F" font-size="21" font-weight="700">from $1,620</text><rect x="327" y="321" width="212" height="268" rx="17" fill="#fff" stroke="#D8E1EE"/><text x="349" y="358" fill="#19365F" font-size="19" font-weight="700">Budapest</text><text x="349" y="391" fill="#64748B" font-size="12" font-weight="700">TREATMENT FROM</text><text x="349" y="415" fill="#2C65B2" font-size="20" font-weight="700">$970</text><text x="349" y="451" fill="#64748B" font-size="12">Flight estimate · $650</text><text x="349" y="477" fill="#64748B" font-size="12">Accommodation · $250</text><rect x="349" y="503" width="168" height="1" fill="#E3EAF3"/><text x="349" y="528" fill="#64748B" font-size="12">ESTIMATED TOTAL</text><text x="349" y="556" fill="#19365F" font-size="21" font-weight="700">from $1,870</text><rect x="558" y="321" width="212" height="268" rx="17" fill="#fff" stroke="#D8E1EE"/><text x="580" y="358" fill="#19365F" font-size="19" font-weight="700">Mexico City</text><text x="580" y="391" fill="#64748B" font-size="12" font-weight="700">TREATMENT FROM</text><text x="580" y="415" fill="#2C65B2" font-size="20" font-weight="700">$1,050</text><text x="580" y="451" fill="#64748B" font-size="12">Flight estimate · $430</text><text x="580" y="477" fill="#64748B" font-size="12">Accommodation · $230</text><rect x="580" y="503" width="168" height="1" fill="#E3EAF3"/><text x="580" y="528" fill="#64748B" font-size="12">ESTIMATED TOTAL</text><text x="580" y="556" fill="#19365F" font-size="21" font-weight="700">from $1,710</text></g><rect x="795" y="204" width="313" height="385" rx="18" fill="#102B57"/><text x="823" y="246" fill="#fff" font-family="Arial" font-size="20" font-weight="700">PDF report preview</text><rect x="823" y="269" width="256" height="124" rx="12" fill="#fff"/><rect x="844" y="291" width="123" height="8" rx="4" fill="#B9C9E3"/><rect x="844" y="316" width="202" height="7" rx="3" fill="#E1E8F2"/><rect x="844" y="333" width="169" height="7" rx="3" fill="#E1E8F2"/><rect x="844" y="359" width="110" height="16" rx="8" fill="#F6DCE5"/><text x="823" y="439" fill="#AFC8EF" font-family="Arial" font-size="12" font-weight="700">COMPARISON SIGNALS</text><text x="823" y="472" fill="#fff" font-family="Arial" font-size="15">Cheapest · Belgrade</text><text x="823" y="503" fill="#fff" font-family="Arial" font-size="15">Easiest · Mexico City</text><text x="823" y="534" fill="#fff" font-family="Arial" font-size="15">Best overall · Compare report</text><text x="96" y="631" fill="#8E6272" font-family="Arial" font-size="13">Estimates for comparison only · not medical advice</text></svg>
