<svg xmlns="http://www.w3.org/2000/svg" width="1200" height="750" viewBox="0 0 1200 750"><rect width="1200" height="750" rx="42" fill="#EEF3FB"/><rect x="55" y="50" width="1090" height="650" rx="25" fill="white"/><path d="M55 108h1090" stroke="#E2E8F0" stroke-width="5"/><circle cx="92" cy="79" r="8" fill="#F4A6A6"/><circle cx="118" cy="79" r="8" fill="#F2CC75"/><text x="105" y="168" fill="#19365F" font-family="Arial" font-size="30" font-weight="700">Role fit assessment</text><text x="105" y="205" fill="#64748B" font-family="Arial" font-size="18">CV facts are the source of truth</text><rect x="105" y="255" width="438" height="310" rx="20" fill="#F6F8FC"/><text x="140" y="305" fill="#19365F" font-family="Arial" font-size="22" font-weight="700">Candidate CV</text><rect x="140" y="337" width="302" height="12" rx="6" fill="#B9C9E3"/><rect x="140" y="370" width="345" height="8" rx="4" fill="#DCE5F1"/><rect x="140" y="394" width="282" height="8" rx="4" fill="#DCE5F1"/><rect x="140" y="436" width="258" height="50" rx="10" fill="white" stroke="#D8E1EE"/><text x="158" y="467" fill="#49617F" font-family="Arial" font-size="16">Grounded experience evidence</text><rect x="600" y="255" width="495" height="310" rx="20" fill="#102B57"/><text x="635" y="305" fill="white" font-family="Arial" font-size="22" font-weight="700">Fit analysis</text><rect x="635" y="337" width="400" height="22" rx="11" fill="#315A8C"/><rect x="635" y="337" width="294" height="22" rx="11" fill="#D6F5E4"/><text x="635" y="405" fill="#AFC8EF" font-family="Arial" font-size="15" font-weight="700">ROLE MATCH</text><text x="635" y="437" fill="white" font-family="Arial" font-size="19">Relevant experience is aligned</text><text x="635" y="490" fill="#AFC8EF" font-family="Arial" font-size="15" font-weight="700">GAP TO DISCUSS</text><text x="635" y="522" fill="white" font-family="Arial" font-size="19">Keep interview answers factual</text></svg>
